<mxfile host="app.diagrams.net" agent="Mozilla/5.0 (Windows NT 10.0; Win64; x64) AppleWebKit/537.36 (KHTML, like Gecko) Chrome/130.0.0.0 Safari/537.36" version="24.8.2">
  <diagram name="第 1 页" id="_wXFGWpD91kYmUnJC7zX">
    <mxGraphModel dx="1304" dy="718" grid="1" gridSize="10" guides="1" tooltips="1" connect="1" arrows="1" fold="1" page="1" pageScale="1" pageWidth="827" pageHeight="1169" math="0" shadow="0">
      <root>
        <mxCell id="0" />
        <mxCell id="1" parent="0" />
        <mxCell id="DcoFs-CMMb-lvAC_AcAE-2" value="OPC服务端" style="ellipse;whiteSpace=wrap;html=1;" vertex="1" parent="1">
          <mxGeometry x="380" y="310" width="120" height="80" as="geometry" />
        </mxCell>
        <mxCell id="DcoFs-CMMb-lvAC_AcAE-3" value="OPC客户端" style="ellipse;whiteSpace=wrap;html=1;" vertex="1" parent="1">
          <mxGeometry x="707" y="530" width="120" height="80" as="geometry" />
        </mxCell>
        <mxCell id="DcoFs-CMMb-lvAC_AcAE-4" value="DB数据库" style="ellipse;whiteSpace=wrap;html=1;" vertex="1" parent="1">
          <mxGeometry x="1050" y="280" width="120" height="80" as="geometry" />
        </mxCell>
        <mxCell id="DcoFs-CMMb-lvAC_AcAE-6" value="有数据变化，形式为n个node点" style="text;html=1;align=center;verticalAlign=middle;resizable=0;points=[];autosize=1;strokeColor=none;fillColor=none;" vertex="1" parent="1">
          <mxGeometry x="360" y="260" width="190" height="30" as="geometry" />
        </mxCell>
        <mxCell id="DcoFs-CMMb-lvAC_AcAE-8" value="客户端需要开局扫描一次服务端的点，第一次扫，会加入到nodevector中" style="text;html=1;align=center;verticalAlign=middle;resizable=0;points=[];autosize=1;strokeColor=none;fillColor=none;" vertex="1" parent="1">
          <mxGeometry x="310" y="585" width="410" height="30" as="geometry" />
        </mxCell>
        <mxCell id="DcoFs-CMMb-lvAC_AcAE-19" style="edgeStyle=orthogonalEdgeStyle;rounded=0;orthogonalLoop=1;jettySize=auto;html=1;" edge="1" parent="1" source="DcoFs-CMMb-lvAC_AcAE-9" target="DcoFs-CMMb-lvAC_AcAE-13">
          <mxGeometry relative="1" as="geometry">
            <Array as="points">
              <mxPoint x="910" y="430" />
              <mxPoint x="910" y="430" />
            </Array>
          </mxGeometry>
        </mxCell>
        <mxCell id="DcoFs-CMMb-lvAC_AcAE-20" value="取数据" style="edgeLabel;html=1;align=center;verticalAlign=middle;resizable=0;points=[];" vertex="1" connectable="0" parent="DcoFs-CMMb-lvAC_AcAE-19">
          <mxGeometry x="0.3579" y="1" relative="1" as="geometry">
            <mxPoint x="-1" y="-82" as="offset" />
          </mxGeometry>
        </mxCell>
        <mxCell id="DcoFs-CMMb-lvAC_AcAE-9" value="globalTagIdRecordQueue任务队列" style="rounded=0;whiteSpace=wrap;html=1;" vertex="1" parent="1">
          <mxGeometry x="740" y="330" width="210" height="30" as="geometry" />
        </mxCell>
        <mxCell id="DcoFs-CMMb-lvAC_AcAE-11" value="启动线程save_snapshots负责监听gloablTagIdRecordQueue，一旦装载的元素达到1w或者时间超过10s就进行一次加锁，然后读数据进行save_snapshots" style="text;html=1;align=center;verticalAlign=middle;resizable=0;points=[];autosize=1;strokeColor=none;fillColor=none;" vertex="1" parent="1">
          <mxGeometry x="950" y="600" width="840" height="30" as="geometry" />
        </mxCell>
        <mxCell id="DcoFs-CMMb-lvAC_AcAE-17" style="edgeStyle=orthogonalEdgeStyle;rounded=0;orthogonalLoop=1;jettySize=auto;html=1;" edge="1" parent="1" source="DcoFs-CMMb-lvAC_AcAE-13" target="DcoFs-CMMb-lvAC_AcAE-4">
          <mxGeometry relative="1" as="geometry" />
        </mxCell>
        <mxCell id="DcoFs-CMMb-lvAC_AcAE-18" value="取完数据存到数据库" style="edgeLabel;html=1;align=center;verticalAlign=middle;resizable=0;points=[];" vertex="1" connectable="0" parent="DcoFs-CMMb-lvAC_AcAE-17">
          <mxGeometry x="-0.4398" relative="1" as="geometry">
            <mxPoint x="-22" as="offset" />
          </mxGeometry>
        </mxCell>
        <mxCell id="DcoFs-CMMb-lvAC_AcAE-13" value="线程1：save_snapshots" style="ellipse;whiteSpace=wrap;html=1;" vertex="1" parent="1">
          <mxGeometry x="860" y="540" width="100" height="70" as="geometry" />
        </mxCell>
        <mxCell id="DcoFs-CMMb-lvAC_AcAE-38" style="edgeStyle=orthogonalEdgeStyle;rounded=0;orthogonalLoop=1;jettySize=auto;html=1;" edge="1" parent="1" source="DcoFs-CMMb-lvAC_AcAE-21" target="DcoFs-CMMb-lvAC_AcAE-35">
          <mxGeometry relative="1" as="geometry" />
        </mxCell>
        <mxCell id="DcoFs-CMMb-lvAC_AcAE-21" value="线程2：扫表加新点到globalNodeQueue" style="ellipse;whiteSpace=wrap;html=1;" vertex="1" parent="1">
          <mxGeometry x="860" y="660" width="115" height="70" as="geometry" />
        </mxCell>
        <mxCell id="DcoFs-CMMb-lvAC_AcAE-27" style="edgeStyle=orthogonalEdgeStyle;rounded=0;orthogonalLoop=1;jettySize=auto;html=1;" edge="1" parent="1" source="DcoFs-CMMb-lvAC_AcAE-3" target="DcoFs-CMMb-lvAC_AcAE-9">
          <mxGeometry relative="1" as="geometry">
            <mxPoint x="827" y="350" as="sourcePoint" />
            <Array as="points">
              <mxPoint x="767" y="350" />
            </Array>
          </mxGeometry>
        </mxCell>
        <mxCell id="DcoFs-CMMb-lvAC_AcAE-29" value="&lt;span style=&quot;color: rgb(0, 0, 0); font-family: Helvetica; font-size: 11px; font-style: normal; font-variant-ligatures: normal; font-variant-caps: normal; font-weight: 400; letter-spacing: normal; orphans: 2; text-align: center; text-indent: 0px; text-transform: none; widows: 2; word-spacing: 0px; -webkit-text-stroke-width: 0px; white-space: nowrap; background-color: rgb(255, 255, 255); text-decoration-thickness: initial; text-decoration-style: initial; text-decoration-color: initial; display: inline !important; float: none;&quot;&gt;订阅到变化就更新到任务队列&lt;/span&gt;" style="text;whiteSpace=wrap;html=1;" vertex="1" parent="1">
          <mxGeometry x="690" y="390" width="180" height="40" as="geometry" />
        </mxCell>
        <mxCell id="DcoFs-CMMb-lvAC_AcAE-30" value="" style="endArrow=classic;html=1;rounded=0;entryX=0.985;entryY=0.643;entryDx=0;entryDy=0;entryPerimeter=0;exitX=0.5;exitY=0;exitDx=0;exitDy=0;" edge="1" parent="1" source="DcoFs-CMMb-lvAC_AcAE-3" target="DcoFs-CMMb-lvAC_AcAE-2">
          <mxGeometry width="50" height="50" relative="1" as="geometry">
            <mxPoint x="660" y="480" as="sourcePoint" />
            <mxPoint x="710" y="430" as="targetPoint" />
          </mxGeometry>
        </mxCell>
        <mxCell id="DcoFs-CMMb-lvAC_AcAE-31" value="订阅服务端的数据变化" style="edgeLabel;html=1;align=center;verticalAlign=middle;resizable=0;points=[];" vertex="1" connectable="0" parent="DcoFs-CMMb-lvAC_AcAE-30">
          <mxGeometry x="0.0571" y="-1" relative="1" as="geometry">
            <mxPoint as="offset" />
          </mxGeometry>
        </mxCell>
        <mxCell id="DcoFs-CMMb-lvAC_AcAE-32" value="" style="endArrow=classic;html=1;rounded=0;entryX=0;entryY=0.5;entryDx=0;entryDy=0;" edge="1" parent="1" source="DcoFs-CMMb-lvAC_AcAE-2" target="DcoFs-CMMb-lvAC_AcAE-3">
          <mxGeometry width="50" height="50" relative="1" as="geometry">
            <mxPoint x="470" y="540" as="sourcePoint" />
            <mxPoint x="520" y="490" as="targetPoint" />
          </mxGeometry>
        </mxCell>
        <mxCell id="DcoFs-CMMb-lvAC_AcAE-33" value="两端进行连接" style="edgeLabel;html=1;align=center;verticalAlign=middle;resizable=0;points=[];" vertex="1" connectable="0" parent="DcoFs-CMMb-lvAC_AcAE-32">
          <mxGeometry x="-0.1865" y="-1" relative="1" as="geometry">
            <mxPoint as="offset" />
          </mxGeometry>
        </mxCell>
        <mxCell id="DcoFs-CMMb-lvAC_AcAE-35" value="globalNodeQueue队列" style="rounded=0;whiteSpace=wrap;html=1;" vertex="1" parent="1">
          <mxGeometry x="827.5" y="790" width="180" height="40" as="geometry" />
        </mxCell>
        <mxCell id="DcoFs-CMMb-lvAC_AcAE-39" value="" style="endArrow=classic;html=1;rounded=0;" edge="1" parent="1" source="DcoFs-CMMb-lvAC_AcAE-3" target="DcoFs-CMMb-lvAC_AcAE-13">
          <mxGeometry width="50" height="50" relative="1" as="geometry">
            <mxPoint x="770" y="750" as="sourcePoint" />
            <mxPoint x="820" y="700" as="targetPoint" />
          </mxGeometry>
        </mxCell>
        <mxCell id="DcoFs-CMMb-lvAC_AcAE-40" value="" style="endArrow=classic;html=1;rounded=0;" edge="1" parent="1" source="DcoFs-CMMb-lvAC_AcAE-3" target="DcoFs-CMMb-lvAC_AcAE-21">
          <mxGeometry width="50" height="50" relative="1" as="geometry">
            <mxPoint x="820" y="660" as="sourcePoint" />
            <mxPoint x="870" y="610" as="targetPoint" />
          </mxGeometry>
        </mxCell>
        <mxCell id="DcoFs-CMMb-lvAC_AcAE-43" value="主线程" style="ellipse;whiteSpace=wrap;html=1;" vertex="1" parent="1">
          <mxGeometry x="1330" y="860" width="120" height="80" as="geometry" />
        </mxCell>
        <mxCell id="DcoFs-CMMb-lvAC_AcAE-44" value="Client实例1" style="ellipse;whiteSpace=wrap;html=1;" vertex="1" parent="1">
          <mxGeometry x="1480" y="810" width="120" height="80" as="geometry" />
        </mxCell>
        <mxCell id="DcoFs-CMMb-lvAC_AcAE-46" value="Client实例2" style="ellipse;whiteSpace=wrap;html=1;" vertex="1" parent="1">
          <mxGeometry x="1480" y="920" width="120" height="80" as="geometry" />
        </mxCell>
      </root>
    </mxGraphModel>
  </diagram>
</mxfile>
